<?xml version="1.0" encoding="UTF-8"?>
<svg version="1.1" xmlns="http://www.w3.org/2000/svg" width="512" height="512">
<path d="M0 0 C0.73863281 -0.06316406 1.47726562 -0.12632813 2.23828125 -0.19140625 C9.26980955 1.97300358 13.53833814 11.75851995 17.1875 17.625 C18.4086838 19.56651342 19.63004356 21.50791617 20.8515625 23.44921875 C21.47708008 24.44743652 22.10259766 25.4456543 22.74707031 26.47412109 C25.99511654 31.64369643 29.28056159 36.78940274 32.5625 41.9375 C33.74756717 43.79937012 34.93247913 45.66133905 36.1171875 47.5234375 C36.61460449 48.30509277 37.11202148 49.08674805 37.62451172 49.89208984 C37.97529785 50.4433252 38.32608398 50.99456055 38.6875 51.5625 C49.41894945 47.90154948 60.07252529 44.08732682 70.640625 39.9765625 C72.15094299 39.39004913 72.15094299 39.39004913 73.69177246 38.79168701 C77.83092466 37.18179726 81.96858185 35.5682799 86.10205078 33.94384766 C89.17430165 32.73826881 92.25080404 31.54412904 95.328125 30.3515625 C96.71417938 29.80165146 96.71417938 29.80165146 98.12823486 29.2406311 C103.36151011 27.22274574 108.04929027 25.67892986 113.6875 25.5625 C116.7506035 26.95529243 118.33023346 27.89348341 119.92938232 30.88804626 C120.21146545 31.77826981 120.49354858 32.66849335 120.78417969 33.58569336 C121.10559937 34.56706268 121.42701904 35.54843201 121.75817871 36.55953979 C122.21819275 38.0460051 122.21819275 38.0460051 122.6875 39.5625 C123.26686703 41.31466204 123.84660849 43.06670034 124.42675781 44.81860352 C125.00048403 46.60875851 125.5717063 48.39971761 126.140625 50.19140625 C126.59825226 51.62588356 126.59825226 51.62588356 127.06512451 53.08934021 C127.7014497 55.08629929 128.33663335 57.08362247 128.97070312 59.08129883 C129.94538842 62.14983457 130.92562752 65.21656028 131.90625 68.28320312 C132.52637462 70.2316649 133.14617817 72.18022889 133.765625 74.12890625 C134.05930969 75.04652237 134.35299438 75.96413849 134.65557861 76.90956116 C134.92295837 77.75481857 135.19033813 78.60007599 135.46582031 79.47094727 C135.82078583 80.58700096 135.82078583 80.58700096 136.18292236 81.7256012 C136.6875 83.5625 136.6875 83.5625 136.6875 85.5625 C137.36544113 85.55139694 138.04338226 85.54029388 138.74186707 85.52885437 C145.79823634 85.41823213 152.8543593 85.34282012 159.91137695 85.2878418 C162.54494227 85.26269843 165.17843782 85.22857916 167.81176758 85.18530273 C171.59734309 85.1246479 175.38199598 85.0962873 179.16796875 85.07421875 C180.9338459 85.03550911 180.9338459 85.03550911 182.73539734 84.99601746 C183.83616104 84.9956398 184.93692474 84.99526215 186.07104492 84.99487305 C187.03701096 84.98376999 188.00297699 84.97266693 188.99821472 84.96122742 C193.13107484 85.88525563 194.33040215 86.9982045 196.6875 90.5625 C197.41619609 95.03424229 197.31807515 99.46052749 197.25512695 103.98168945 C197.25371585 105.36171924 197.25450969 106.74175279 197.25733948 108.1217804 C197.25877265 111.86136459 197.22940017 115.60014505 197.19446969 119.33954263 C197.163189 123.24993569 197.16027412 127.16034768 197.15434265 131.07084656 C197.13880915 138.4727947 197.09778767 145.8743731 197.0475952 153.27615851 C196.99168613 161.70411501 196.96421135 170.13208927 196.93911803 178.56018507 C196.88687114 195.89450383 196.79893878 213.22846281 196.6875 230.5625 C197.6619104 230.53893433 197.6619104 230.53893433 198.65600586 230.51489258 C201.64557931 230.45190663 204.63501249 230.41330979 207.625 230.375 C208.64658203 230.34986328 209.66816406 230.32472656 210.72070312 230.29882812 C222.16907468 230.18909932 230.92187857 233.42833657 239.4453125 241.15625 C246.79435853 248.98538446 248.28432043 258.078453 248.20507812 268.46289062 C248.21559204 270.18199898 248.21559204 270.18199898 248.22631836 271.93583679 C248.24381967 275.69705961 248.23230272 279.45752048 248.21875 283.21875 C248.22144715 285.8485122 248.22533143 288.47827343 248.23034668 291.10803223 C248.23759935 296.60872541 248.22809844 302.10920293 248.20898438 307.60986328 C248.18721994 313.94593609 248.19427303 320.28149384 248.21629 326.61755419 C248.23671312 332.74292285 248.23444488 338.86806534 248.22276306 344.99345398 C248.22010359 347.58648247 248.22333795 350.17952421 248.23268127 352.77253723 C248.24289272 356.40274372 248.22727971 360.0319751 248.20507812 363.66210938 C248.21317505 364.72318405 248.22127197 365.78425873 248.22961426 366.87748718 C248.10482428 377.94752791 244.54970853 385.8614757 236.6875 393.5625 C227.75286721 402.02688896 216.89055239 402.74889225 205.1875 402.625 C204.36507813 402.62048828 203.54265625 402.61597656 202.6953125 402.61132812 C200.69267604 402.59968489 198.69007773 402.58175556 196.6875 402.5625 C196.69638245 403.86684494 196.70526489 405.17118988 196.7144165 406.51506042 C196.79546902 418.80143584 196.85544956 431.08775709 196.89474869 443.3743391 C196.91563193 449.6911603 196.94396367 456.00776582 196.98925781 462.32446289 C197.03268831 468.41933121 197.05663155 474.51399196 197.06700897 480.60900307 C197.07440529 482.93546123 197.08884837 485.26190791 197.11042023 487.58827782 C197.13941618 490.84450289 197.14345748 494.09986797 197.14160156 497.35620117 C197.15598267 498.32005234 197.17036377 499.2839035 197.18518066 500.27696228 C197.17968201 501.16732178 197.17418335 502.05768127 197.16851807 502.97502136 C197.17220524 503.7447185 197.17589241 504.51441565 197.17969131 505.30743694 C196.460244 508.60371424 195.06350937 510.18427331 192.6875 512.5625 C189.58955675 513.18809515 189.58955675 513.18809515 185.85973454 513.18891239 C185.17015745 513.19588 184.48058036 513.20284761 183.770107 513.21002635 C181.44774596 513.22734078 179.12703771 513.20887019 176.80470276 513.19068909 C175.12758927 513.19573181 173.45048115 513.20295852 171.77338547 513.21218723 C167.15549874 513.23117735 162.53813905 513.21883765 157.92026532 513.2014643 C152.94318815 513.1881283 147.96619004 513.20351427 142.98912048 513.21528625 C133.23284885 513.23369907 123.47677704 513.22512468 113.72051156 513.20719803 C105.78830434 513.19318506 97.85615145 513.18927644 89.92393303 513.1926403 C88.795881 513.19311775 87.66782897 513.19359519 86.50559355 513.1940871 C84.21401818 513.19511342 81.92244282 513.19616878 79.63086747 513.19725286 C59.34835407 513.20582821 39.06593718 513.18912182 18.78344727 513.15942383 C-0.88944561 513.13061883 -20.56219926 513.12348554 -40.23510742 513.13891602 C-61.65228816 513.15569161 -83.06940272 513.15969583 -104.4865852 513.14220566 C-106.77258717 513.14036129 -109.05858915 513.13852656 -111.34459114 513.13670158 C-112.46933892 513.13578949 -113.5940867 513.1348774 -114.75291775 513.13393768 C-122.66873446 513.12833809 -130.58451883 513.13163441 -138.50033379 513.13824654 C-148.15771389 513.14599293 -157.81495711 513.13918117 -167.4723097 513.1140715 C-172.39743933 513.1016028 -177.32235617 513.09539773 -182.24749374 513.10661316 C-186.76258761 513.11670023 -191.2772584 513.10810119 -195.79230107 513.08503198 C-197.419582 513.07989922 -199.04690126 513.08138623 -200.67416518 513.09042663 C-219.13248881 513.18438418 -234.27111381 508.32617516 -247.61328125 495.328125 C-260.23892679 482.39186299 -264.78669705 467.67603455 -264.70018005 449.83706665 C-264.70436123 448.47977427 -264.70984301 447.12248538 -264.71649987 445.76520288 C-264.73087063 442.06396517 -264.72673621 438.36295171 -264.71933305 434.66170216 C-264.71458279 430.65886191 -264.72712759 426.65606889 -264.73735046 422.65324402 C-264.75450759 414.82238741 -264.75538489 406.99161115 -264.75013756 399.16074063 C-264.74608883 392.79287578 -264.74754776 386.42503459 -264.75288582 380.05717087 C-264.75363424 379.14932081 -264.75438266 378.24147075 -264.75515376 377.30611008 C-264.75668531 375.46154845 -264.75822366 373.61698683 -264.75976873 371.77242522 C-264.77348264 354.49174925 -264.76806391 337.21111861 -264.75658352 319.93044369 C-264.74665255 304.13892288 -264.75959142 288.34751926 -264.78351771 272.55601652 C-264.80793011 256.32070516 -264.8175113 240.08544833 -264.81086498 223.85011899 C-264.80737749 214.74345515 -264.80957375 205.6368814 -264.82711601 196.53023148 C-264.84186479 188.7779393 -264.84243856 181.02580067 -264.8250451 173.27351142 C-264.81655465 169.32245842 -264.81433731 165.3716794 -264.82969666 161.42064095 C-264.84361264 157.79585931 -264.83869318 154.1715846 -264.81945742 150.54683177 C-264.81396189 148.63128948 -264.82791111 146.71572093 -264.84281152 144.80022871 C-264.69914077 127.7438635 -258.09812241 113.38984893 -246.2421875 101.296875 C-235.99621828 91.39811138 -221.72236721 85.37900372 -207.47759247 85.48759747 C-204.37960937 85.54648073 -201.28256167 85.62642935 -198.18532181 85.71601868 C-193.80653022 85.82930903 -189.42680015 85.86406545 -185.046875 85.91015625 C-179.516169 85.96941336 -173.98993981 86.0506936 -168.46191406 86.23779297 C-143.60572903 87.04548499 -127.49765811 85.19727389 -108.10604858 68.82106018 C-103.59591841 65.17465844 -98.69206314 62.20597784 -93.75 59.1875 C-91.94615765 58.05096411 -90.14382874 56.9120187 -88.34375 55.76953125 C-87.49167969 55.22893066 -86.63960937 54.68833008 -85.76171875 54.13134766 C-81.33467305 51.29560247 -76.97154451 48.36606626 -72.60644531 45.4362793 C-65.6034951 40.74101574 -58.55482547 36.11672745 -51.5 31.5 C-50.89165314 31.10182068 -50.28330627 30.70364136 -49.65652466 30.293396 C-46.51429892 28.23683403 -43.37173961 26.18078256 -40.22900391 24.125 C-34.19147987 20.17527824 -28.15675019 16.22129014 -22.12197876 12.2673645 C-20.21969448 11.02109206 -18.31725968 9.77504966 -16.41479492 8.52905273 C-15.25308872 7.7680721 -14.09138605 7.00708607 -12.9296875 6.24609375 C-11.91503418 5.58150146 -10.90038086 4.91690918 -9.85498047 4.23217773 C-3.71321796 0.19880787 -3.71321796 0.19880787 0 0 Z " fill="#000000" transform="translate(264.3125,-0.5625)"/>
<path d="M0 0 C0.54165298 0.40978592 1.08330597 0.81957184 1.64137268 1.24177551 C2.35599167 1.78049789 3.07061066 2.31922028 3.80688477 2.87426758 C4.51353775 3.4078035 5.22019073 3.94133942 5.94825745 4.49104309 C17.47696337 12.96984587 28.66232022 17.10658002 42.96772671 17.1386652 C43.97007324 17.14292853 43.97007324 17.14292853 44.99266919 17.14727798 C47.22367671 17.15557585 49.45463196 17.15688931 51.68565369 17.15821838 C53.30449325 17.16278708 54.92333165 17.16778756 56.54216868 17.17318195 C60.98436603 17.18673739 65.42655574 17.1941739 69.86876833 17.20060861 C74.66147353 17.20862396 79.4541629 17.22231783 84.24685669 17.23532104 C92.54847149 17.25706769 100.8500879 17.27521881 109.15171623 17.29092598 C121.1544692 17.3136411 133.15720462 17.34178166 145.15994269 17.37124526 C164.63372032 17.41890102 184.10750513 17.46217067 203.58129883 17.50268555 C222.49797118 17.54205073 241.41463715 17.58347941 260.33129883 17.62768555 C261.49737503 17.63040982 262.66345124 17.63313409 263.86486309 17.63594092 C269.71474059 17.64962056 275.56461799 17.6633408 281.41449535 17.67708123 C329.94298439 17.79101434 378.47148623 17.8970233 427 18 C427 43.41 427 68.82 427 95 C419.51054687 95.01417969 412.02109375 95.02835937 404.3046875 95.04296875 C399.53771409 95.06304423 394.77083551 95.08457926 390.00390625 95.11132812 C382.45064627 95.1535744 374.89762686 95.19064515 367.34423828 95.19555664 C361.24911383 95.19985974 355.15452958 95.22848946 349.05957413 95.27343178 C346.74341106 95.28634256 344.42718313 95.29073746 342.11098862 95.28615379 C324.2071868 95.25899485 310.84980905 97.11643566 296 108 C295.28199219 108.52207031 294.56398438 109.04414063 293.82421875 109.58203125 C283.67796347 117.67933401 278.64431425 128.86271305 275 141 C274.79890625 141.65484375 274.5978125 142.3096875 274.390625 142.984375 C271.46366201 158.08750404 275.83788981 175.24897008 284 188 C293.7866978 200.83349994 306.91911152 210.06160156 323 213 C326.48632062 213.28563947 329.95826664 213.31084337 333.45507812 213.31884766 C334.47061768 213.32889328 335.48615723 213.3389389 336.5324707 213.34928894 C339.86539175 213.38000413 343.1982329 213.39712368 346.53125 213.4140625 C348.85152875 213.43278352 351.17180075 213.45235762 353.49206543 213.4727478 C359.58125832 213.52397622 365.67047326 213.5636517 371.75976562 213.60089111 C379.07540357 213.64804642 386.39093289 213.70960439 393.70648193 213.76873779 C404.80427722 213.85683672 415.90205288 213.92668255 427 214 C427 245.02 427 276.04 427 308 C377.24875024 308.08818918 327.49757423 308.16204302 277.74626867 308.20426132 C271.87210541 308.20926412 265.99794231 308.21444141 260.1237793 308.21972656 C258.95434372 308.2207758 257.78490815 308.22182505 256.58003513 308.22290608 C237.64698455 308.24030928 218.71398257 308.27184653 199.78096082 308.30861118 C180.35260754 308.34602292 160.9242797 308.36823636 141.49589187 308.37635398 C129.50842413 308.38184125 117.52109377 308.39916978 105.53366832 308.43166587 C97.31241596 308.45281659 89.09123458 308.45919876 80.86995699 308.45400551 C76.12735099 308.45144462 71.384985 308.45535864 66.64242172 308.4768219 C62.29630908 308.49634694 57.95059689 308.49723154 53.60446546 308.48359558 C52.03630434 308.48191131 50.4681178 308.48693502 48.90000638 308.49953273 C35.71246372 308.59927456 25.51523884 306.21627978 15 298 C14.38382813 297.52175781 13.76765625 297.04351562 13.1328125 296.55078125 C6.3428251 290.56050347 1.44159275 280.88847278 0 272 C-0.08503779 270.38065783 -0.12379475 268.75840934 -0.12304783 267.13683605 C-0.12503888 266.17939721 -0.12702993 265.22195837 -0.12908131 264.23550624 C-0.12616847 263.19173251 -0.12325563 262.14795878 -0.12025452 261.07255554 C-0.12110894 259.95755718 -0.12196337 258.84255881 -0.12284368 257.69377261 C-0.12449334 253.95037318 -0.11898546 250.20701837 -0.11352539 246.46362305 C-0.11324338 243.78311563 -0.11335747 241.10261096 -0.1139679 238.42210388 C-0.11449214 232.64741744 -0.11135574 226.8727423 -0.10573006 221.0980587 C-0.09760157 212.7488456 -0.09499845 204.39963796 -0.09374207 196.05042133 C-0.09155367 182.50423287 -0.08489933 168.95805043 -0.07543945 155.41186523 C-0.06625985 142.2533369 -0.05918169 129.09481019 -0.05493164 115.9362793 C-0.05466892 115.12513012 -0.05440619 114.31398094 -0.05413551 113.47825148 C-0.05283047 109.40893728 -0.05156676 105.33962307 -0.05032361 101.27030885 C-0.03995761 67.51353487 -0.02234505 33.75676817 0 0 Z " fill="#74452D" transform="translate(17,187)"/>
<path d="M0 0 C0.09796875 1.29292969 0.1959375 2.58585937 0.296875 3.91796875 C1.86421974 22.8501795 5.79280728 39.15795626 20.140625 52.6796875 C25.3041818 56.86978687 30.88400196 60.37372108 37 63 C37.78805023 63.33933563 38.57610046 63.67867126 39.38803101 64.02828979 C50.67543246 68.15495345 62.152594 67.60496136 74.01953125 67.609375 C76.33266852 67.6243773 78.64579516 67.6411087 80.95890808 67.65948486 C87.00697355 67.70294018 93.05489455 67.72310899 99.10308838 67.73822021 C106.38133268 67.76133336 113.65941944 67.81373764 120.93753815 67.86116028 C131.9583996 67.92972654 142.97880992 67.96137659 154 68 C154 99.02 154 130.04 154 162 C24.64 162 -104.72 162 -238 162 C-238 161.67 -238 161.34 -238 161 C-237.12819092 160.89220215 -237.12819092 160.89220215 -236.23876953 160.78222656 C-228.57939191 159.57324785 -222.58964548 156.51857949 -215.875 152.75 C-214.75931641 152.13680908 -213.64363281 151.52361816 -212.49414062 150.8918457 C-201.55905996 144.8450907 -190.76351888 138.55248027 -180.01757812 132.17651367 C-178.70185225 131.40927226 -177.36229042 130.68114521 -176 130 C-175.5316735 127.41394668 -175.5316735 127.41394668 -175.375 124.4375 C-175.30023438 123.42558594 -175.22546875 122.41367187 -175.1484375 121.37109375 C-175.09945312 120.58863281 -175.05046875 119.80617188 -175 119 C-173.90945312 119.05542969 -172.81890625 119.11085938 -171.6953125 119.16796875 C-159.24345222 119.39129547 -151.62007188 115.89121641 -141.5859375 108.81591797 C-138.7205895 106.8037901 -135.81758274 104.85511844 -132.90625 102.91015625 C-109.72636954 87.37292392 -87.0051308 71.16455841 -65 54 C-64.46133301 53.58218262 -63.92266602 53.16436523 -63.36767578 52.73388672 C-45.22281026 38.65879878 -27.51052612 24.01014177 -10.640625 8.42578125 C-1.46859903 0 -1.46859903 0 0 0 Z " fill="#6A3F29" transform="translate(290,333)"/>
<path d="M0 0 C0.06957695 9.93588364 0.12285037 19.8717091 0.15543652 29.80778694 C0.17107796 34.42175032 0.19228842 39.03554675 0.22631836 43.64941406 C0.25896611 48.10386669 0.27686446 52.55815895 0.28463173 57.01272202 C0.29016552 58.71035155 0.30097173 60.40797252 0.31719017 62.1055336 C0.33903674 64.4873766 0.34196395 66.86856086 0.34057617 69.25048828 C0.351362 69.94892349 0.36214783 70.6473587 0.3732605 71.36695862 C0.33906379 76.80774244 -1.01051934 80.8432221 -4.71875 84.86328125 C-5.3065625 85.34152344 -5.894375 85.81976563 -6.5 86.3125 C-7.0878125 86.80363281 -7.675625 87.29476562 -8.28125 87.80078125 C-11.62515666 90.13391612 -14.62646333 90.12881774 -18.57044983 90.14044189 C-19.72968964 90.14615204 -20.88892944 90.15186218 -22.08329773 90.15774536 C-23.35655411 90.15886322 -24.62981049 90.15998108 -25.94165039 90.16113281 C-27.29530981 90.16576198 -28.64896792 90.17078678 -30.00262451 90.17617798 C-33.68275251 90.18929976 -37.36286226 90.19574721 -41.04301 90.20018864 C-43.34485764 90.20312143 -45.64670032 90.20722677 -47.94854546 90.21169281 C-55.15775913 90.22537093 -62.36696144 90.23503445 -69.57618719 90.2388947 C-77.88367335 90.24336786 -86.19099435 90.26087979 -94.49843031 90.2898953 C-100.92747202 90.3115659 -107.35646747 90.32160194 -113.78554529 90.32293582 C-117.62114878 90.32398057 -121.45659708 90.32981688 -125.29216194 90.34775543 C-128.90619072 90.36432804 -132.51994927 90.36634753 -136.13400269 90.35761642 C-138.07868935 90.35648819 -140.02336741 90.37013684 -141.96800232 90.3843689 C-155.46176418 90.32062828 -166.20421116 86.56135824 -176.25 77.375 C-184.58252119 68.58705761 -188.48840107 57.05604745 -188.25 45.12109375 C-187.39185075 34.40763666 -182.93612449 23.45995702 -175 16 C-164.2185983 7.22085861 -154.80367252 4.39622676 -140.98828125 4.50170898 C-139.6040285 4.49787787 -138.21977975 4.49225211 -136.83554077 4.48498535 C-133.87375445 4.47310443 -130.91232309 4.4734695 -127.95053101 4.48357964 C-123.25896642 4.49924514 -118.56776069 4.48539054 -113.8762207 4.46754456 C-104.76284 4.43682436 -95.64957099 4.43521945 -86.53614807 4.43719482 C-74.93633622 4.43859063 -63.33661034 4.42811045 -51.73686123 4.3886171 C-47.0814007 4.37375691 -42.42626277 4.37389809 -37.77079773 4.38609493 C-34.86620071 4.39083239 -31.96172518 4.38324558 -29.05714798 4.37255096 C-27.08629842 4.36902973 -25.11543945 4.38036691 -23.1446228 4.39228821 C-15.15455491 4.34707196 -7.23618378 0 0 0 Z " fill="#865238" transform="translate(495,294)"/>
<path d="M0 0 C1.2084198 2.44645691 1.2084198 2.44645691 2.21557617 5.74291992 C2.79315422 7.58579338 2.79315422 7.58579338 3.38240051 9.46589661 C3.79026203 10.82486901 4.19794629 12.18389463 4.60546875 13.54296875 C5.04095705 14.95024993 5.47817649 16.35699646 5.91703796 17.76322937 C6.83276717 20.70363095 7.74012747 23.64642677 8.64154053 26.59124756 C10.53076457 32.74640564 12.50613772 38.87365385 14.47628212 45.0032692 C15.5523852 48.35661377 16.62056685 51.71247583 17.6887207 55.06835938 C17.9027526 55.74065142 18.1167845 56.41294346 18.33730221 57.10560799 C18.99585922 59.17452183 19.65420811 61.24350179 20.3125 63.3125 C20.53689632 64.01765747 20.76129265 64.72281494 20.99248886 65.44934082 C26.98520756 84.2831151 32.95387082 103.12399172 38.8125 122 C39.08712067 122.88184967 39.36174133 123.76369934 39.64468384 124.67227173 C40.39780206 127.09304785 41.14698739 129.51499759 41.89453125 131.9375 C42.1121814 132.63622726 42.32983154 133.33495453 42.55407715 134.05485535 C44 138.76913179 44 138.76913179 44 141 C35.75 141 27.5 141 19 141 C18.29915283 138.83985352 17.59830566 136.67970703 16.8762207 134.45410156 C14.55648528 127.31251173 12.21846208 120.17700742 9.87142658 113.04434586 C8.44916894 108.72020251 7.03311336 104.39423133 5.63110352 100.06347656 C4.27749163 95.8829968 2.90775888 91.70812083 1.52675438 87.53661346 C1.00309525 85.94533384 0.48524291 84.35213102 -0.02664757 82.75702667 C-0.74549903 80.52045157 -1.48482641 78.29164915 -2.22924805 76.06347656 C-2.53891006 75.07516846 -2.53891006 75.07516846 -2.85482788 74.06689453 C-4.34399425 69.7072342 -6.11923935 67.46750111 -10 65 C-13.0323022 64.27840117 -13.0323022 64.27840117 -16.25 64.0625 C-26.5891329 62.69015165 -32.46790338 57.94739649 -39.93359375 50.890625 C-41.85743927 48.95719085 -41.85743927 48.95719085 -44 48 C-51.29291562 48.36181204 -57.37674139 50.3032817 -64.16796875 52.8828125 C-65.25102295 53.2846727 -66.33407715 53.6865329 -67.44995117 54.10057068 C-71.03277373 55.43249927 -74.61002648 56.77877745 -78.1875 58.125 C-80.72810807 59.07372425 -83.26991959 60.01920323 -85.81176758 60.96459961 C-91.16045027 62.95539069 -96.50672463 64.95252447 -101.8515625 66.95361328 C-109.78049177 69.92141282 -117.71717818 72.86805058 -125.65625 75.80859375 C-126.95093935 76.28821428 -128.24562726 76.76783871 -129.54031372 77.24746704 C-131.48045111 77.96618844 -133.42059512 78.68489195 -135.36076546 79.4035244 C-141.87279282 81.81577759 -148.38313841 84.23255491 -154.89331436 86.64979935 C-169.6977977 92.14669206 -184.50410892 97.63864245 -199.3125 103.125 C-200.39554413 103.52634155 -201.47858826 103.92768311 -202.5944519 104.34118652 C-214.87238726 108.89041044 -227.15440881 113.42837043 -239.44342613 117.9475708 C-241.39566833 118.66551385 -243.34784382 119.38363803 -245.30000305 120.10180664 C-251.49904988 122.38217142 -257.69874663 124.66074419 -263.8996582 126.93603516 C-266.15710976 127.76582549 -268.41451665 128.59573737 -270.671875 129.42578125 C-272.28304955 130.01639595 -272.28304955 130.01639595 -273.92677307 130.61894226 C-278.75084646 132.39546227 -283.55427053 134.20256872 -288.31884766 136.13354492 C-289.13194397 136.46118332 -289.94504028 136.78882172 -290.78277588 137.12638855 C-292.24573446 137.72100261 -293.70461554 138.32582959 -295.15765381 138.94429016 C-305.42083985 143.12020803 -317.02204336 142.30932276 -327.26171875 138.34375 C-331.84012412 136.09700043 -336.2935983 133.53420162 -340 130 C-340 129.01 -340 128.02 -340 127 C-339.44909698 126.7908345 -338.89819397 126.58166901 -338.33059692 126.36616516 C-305.56120575 113.92899258 -305.56120575 113.92899258 -272.8125 101.4375 C-272.15566223 101.18625366 -271.49882446 100.93500732 -270.82208252 100.67614746 C-263.29924517 97.79808622 -255.77824497 94.91524587 -248.25810242 92.03015137 C-224.46253335 82.90151178 -200.64902603 73.8218311 -176.81591797 64.79162598 C-158.86750642 57.99070315 -140.92894282 51.16458072 -123 44.3125 C-109.64253241 39.20768991 -96.2846539 34.10407437 -82.91796875 29.0234375 C-81.85483459 28.61933151 -80.79170044 28.21522552 -79.6963501 27.7988739 C-74.47611242 25.81524237 -69.25505399 23.83380541 -64.03271484 21.85571289 C-54.92088049 18.40263254 -45.81463865 14.93753459 -36.73231506 11.40742493 C-32.79657328 9.87794975 -28.85800535 8.35582586 -24.91934204 6.83389282 C-23.07335088 6.11785429 -21.22889142 5.39785286 -19.38607788 4.67367554 C-16.86781765 3.68415683 -14.34478565 2.70791054 -11.8203125 1.734375 C-10.71163063 1.29225426 -10.71163063 1.29225426 -9.58055115 0.84120178 C-3.25830953 -1.57045103 -3.25830953 -1.57045103 0 0 Z " fill="#7EA633" transform="translate(371,47)"/>
<path d="M0 0 C2.39453125 1.48828125 2.39453125 1.48828125 4.8125 3.3125 C10.88127977 7.6870414 15.74543426 10.80213095 23.25 11.625 C25.66363525 12.05735779 25.66363525 12.05735779 28 13 C29.2020874 14.92201233 29.2020874 14.92201233 30.05371094 17.37524414 C30.37754761 18.28025665 30.70138428 19.18526917 31.03503418 20.1177063 C31.3534729 21.06886322 31.67191162 22.02002014 32 23 C32.47524109 24.35192947 32.47524109 24.35192947 32.96008301 25.73117065 C33.96105245 28.60351637 34.92953705 31.48517017 35.890625 34.37109375 C36.24010193 35.41523941 36.58957886 36.45938507 36.949646 37.53517151 C37.68051539 39.72207777 38.40984653 41.90949867 39.13769531 44.09741211 C40.25555502 47.45418091 41.38143938 50.80818905 42.5078125 54.16210938 C43.21923575 56.2941088 43.9301902 58.42626474 44.640625 60.55859375 C44.97805725 61.56168076 45.3154895 62.56476776 45.66314697 63.59825134 C46.12427887 64.99099022 46.12427887 64.99099022 46.59472656 66.41186523 C47.00298676 67.63570168 47.00298676 67.63570168 47.41949463 68.88426208 C48 71 48 71 48 74 C-35.49 74 -118.98 74 -205 74 C-202.90939348 71.90939348 -201.73159148 71.38034095 -199.00488281 70.39038086 C-198.17061264 70.08433426 -197.33634247 69.77828766 -196.47679138 69.46296692 C-195.56148148 69.13358627 -194.64617157 68.80420563 -193.703125 68.46484375 C-192.74434952 68.11471725 -191.78557404 67.76459076 -190.79774475 67.40385437 C-188.71384556 66.64359226 -186.62900978 65.88589367 -184.54336548 65.13043213 C-181.208343 63.92241088 -177.87571939 62.70798059 -174.54370117 61.49169922 C-169.93587681 59.80988071 -165.32729562 58.13016082 -160.71826172 56.45166016 C-150.904691 52.87428992 -141.10829839 49.25068396 -131.3125 45.625 C-129.43784803 44.9317425 -127.56317336 44.23854642 -125.68847656 43.54541016 C-109.472442 37.54891807 -93.26086178 31.54039162 -77.04858398 25.53375244 C-62.14087169 20.01077212 -47.23031072 14.4956503 -32.3125 9 C-31.54212402 8.71613434 -30.77174805 8.43226868 -29.97802734 8.13980103 C-29.23633301 7.86654999 -28.49463867 7.59329895 -27.73046875 7.31176758 C-26.65966568 6.91711052 -26.65966568 6.91711052 -25.56723022 6.51448059 C-24.20981896 6.01532713 -22.85179155 5.51784515 -21.49307251 5.02226257 C-18.55681292 3.95055992 -15.63514045 2.85582031 -12.72802734 1.70703125 C-11.75945801 1.32933594 -10.79088867 0.95164062 -9.79296875 0.5625 C-8.97723389 0.23378906 -8.16149902 -0.09492187 -7.32104492 -0.43359375 C-4.51838626 -1.11752855 -2.75080656 -0.80843879 0 0 Z " fill="#699429" transform="translate(324,114)"/>
<path d="M0 0 C6.27 0.20625 12.54 0.4125 19 0.625 C19 26.035 19 51.445 19 77.625 C-14.66 77.625 -48.32 77.625 -83 77.625 C-81.30427347 74.23354693 -80.41745372 72.8309289 -77.8125 70.375 C-73.97396665 66.63872266 -70.48357798 62.6913819 -67 58.625 C-66.13632812 57.62726563 -65.27265625 56.62953125 -64.3828125 55.6015625 C-53.42621409 42.92162116 -42.70893085 30.06387742 -32.61352539 16.68432617 C-31.61804915 15.3655048 -30.60481065 14.0599229 -29.57519531 12.76757812 C-27.90691619 10.60250699 -27.90691619 10.60250699 -26.54199219 7.91992188 C-20.26373801 -2.42546956 -10.80093474 -0.50086409 0 0 Z " fill="#693F29" transform="translate(425,204.375)"/>
<path d="M0 0 C1.26757812 1.47436523 1.26757812 1.47436523 2.53125 3.55859375 C3.24535034 4.71488281 3.24535034 4.71488281 3.97387695 5.89453125 C4.47749756 6.73371094 4.98111816 7.57289062 5.5 8.4375 C6.565044 10.17661623 7.63148242 11.91487918 8.69921875 13.65234375 C9.51398682 14.98434814 9.51398682 14.98434814 10.34521484 16.34326172 C11.94277203 18.90812115 13.59031088 21.42941414 15.26953125 23.94140625 C15.78128906 24.70976807 16.29304687 25.47812988 16.8203125 26.26977539 C17.80136795 27.73606163 18.78946928 29.19766247 19.78515625 30.65405273 C20.93458709 32.38686199 21.97815104 34.1890213 23 36 C22 39 22 39 20.06813049 40.04792786 C19.21492722 40.36573715 18.36172394 40.68354645 17.48266602 41.01098633 C16.50642273 41.38108826 15.53017944 41.75119019 14.52435303 42.13250732 C13.44510559 42.52835022 12.36585815 42.92419312 11.25390625 43.33203125 C10.12639954 43.75599182 8.99889282 44.17995239 7.83721924 44.61676025 C5.37888739 45.53941146 2.91940951 46.45774161 0.4569397 47.36917114 C-3.48194653 48.82717061 -7.41484775 50.30084925 -11.34692383 51.77709961 C-16.1414609 53.57602464 -20.93732284 55.37132621 -25.73500347 57.16185093 C-37.71154498 61.63203529 -49.66408401 66.16484324 -61.61422729 70.70510864 C-65.19693282 72.06608328 -68.78015329 73.4256936 -72.36352539 74.78491211 C-88.34874654 80.84896462 -104.33009525 86.92317299 -120.30508423 93.01412964 C-122.63884195 93.90377016 -124.97279778 94.79289119 -127.30697632 95.681427 C-130.55684791 96.91877422 -133.80593206 98.15816301 -137.0546875 99.3984375 C-138.0701918 99.78529221 -139.08569611 100.17214691 -140.13197327 100.57072449 C-145.07793123 102.46340761 -150.00193647 104.39603868 -154.89941406 106.41113281 C-155.8261795 106.79089264 -156.75294495 107.17065247 -157.70779419 107.56192017 C-159.44386759 108.27720499 -161.17659823 109.00067836 -162.90524292 109.73373413 C-164.04873703 110.20512314 -164.04873703 110.20512314 -165.21533203 110.68603516 C-165.87759796 110.96516754 -166.53986389 111.24429993 -167.22219849 111.53189087 C-169 112 -169 112 -172 111 C-153.80398611 99.03378093 -135.60293307 87.07564453 -117.37109375 75.1640625 C-110.47278205 70.65680764 -103.57975443 66.14150913 -96.6875 61.625 C-96.08351379 61.22921753 -95.47952759 60.83343506 -94.85723877 60.42565918 C-91.79589201 58.41958686 -88.73460086 56.41342971 -85.67333984 54.40722656 C-80.82133154 51.22750848 -75.96890991 48.04842136 -71.11645508 44.86938477 C-68.70863348 43.2919109 -66.30092611 41.71426292 -63.89331055 40.13647461 C-58.38275639 36.52539195 -52.87158286 32.91527018 -47.35757446 29.3094635 C-44.85419219 27.67231305 -42.35124292 26.03450125 -39.84832764 24.39663696 C-38.62396423 23.59568424 -37.39939812 22.7950413 -36.17462158 21.99472046 C-29.9614273 17.93449369 -23.764205 13.85545407 -17.6171875 9.6953125 C-16.64136719 9.03635986 -15.66554687 8.37740723 -14.66015625 7.69848633 C-12.85386659 6.47534576 -11.05151838 5.24635638 -9.25390625 4.01049805 C-8.46628906 3.477229 -7.67867187 2.94395996 -6.8671875 2.39453125 C-6.18769043 1.92893799 -5.50819336 1.46334473 -4.80810547 0.98364258 C-3 0 -3 0 0 0 Z " fill="#699429" transform="translate(263,21)"/>
<path d="M0 0 C1.12067871 0.0028299 2.24135742 0.00565979 3.39599609 0.00857544 C6.95160911 0.01970999 10.50696398 0.04480236 14.0625 0.0703125 C16.48306926 0.08035098 18.9036425 0.08947531 21.32421875 0.09765625 C27.23706624 0.11962729 33.14976467 0.15303759 39.0625 0.1953125 C33.84774143 5.57230057 33.84774143 5.57230057 30.6015625 7.51953125 C29.97419189 7.90230225 29.34682129 8.28507324 28.70043945 8.67944336 C28.03616943 9.07655518 27.37189941 9.47366699 26.6875 9.8828125 C25.23456509 10.77162227 23.78276409 11.66228798 22.33203125 12.5546875 C21.60709473 13.00005859 20.8821582 13.44542969 20.13525391 13.90429688 C17.17145962 15.75029737 14.26979368 17.68095931 11.375 19.6328125 C3.24510514 25.10279453 -4.95755949 30.4610046 -13.16165161 35.81872559 C-19.36876115 39.87232376 -25.57137752 43.92843134 -31.70703125 48.08984375 C-32.54129639 48.65461426 -33.37556152 49.21938477 -34.23510742 49.80126953 C-35.74330648 50.82614244 -37.2476466 51.85672662 -38.74731445 52.89404297 C-43.60808309 56.1953125 -43.60808309 56.1953125 -46.9375 56.1953125 C-50.86403985 45.39732792 -49.37971519 34.62600068 -44.9375 24.1953125 C-38.56446483 12.64317786 -29.09563815 5.01345247 -16.515625 1.14233398 C-11.03790333 -0.19336911 -5.60831988 -0.05388975 0 0 Z " fill="#F7B22D" transform="translate(65.9375,101.8046875)"/>
<path d="M0 0 C12.54 0 25.08 0 38 0 C38 28.38 38 56.76 38 86 C34.37 86 30.74 86 27 86 C20.71611707 67.63172682 14.83800835 49.13904648 9 30.625 C8.61361359 29.40262634 8.22722717 28.18025269 7.82913208 26.9208374 C6.71646047 23.39867027 5.60758906 19.87533078 4.5 16.3515625 C4.16181747 15.28170105 3.82363495 14.2118396 3.47520447 13.10955811 C3.16369949 12.11514709 2.85219452 11.12073608 2.53125 10.09619141 C2.12229492 8.79604599 2.12229492 8.79604599 1.70507812 7.46963501 C1.00395031 5.01383651 0.50086565 2.50432827 0 0 Z " fill="#FCB52E" transform="translate(406,102)"/>
<path d="M0 0 C5.72110732 3.60928918 10.34480014 8.96573292 12.328125 15.46875 C13.33336459 23.92629463 13.21962936 31.22395255 8.171875 38.37890625 C3.10513473 44.12192753 -2.43262614 47.86262454 -10.13671875 48.75390625 C-18.34447602 49.20285791 -24.56105179 47.09959009 -30.74609375 41.63671875 C-36.07852089 35.96891884 -38.69859054 30.36046942 -39.171875 22.59375 C-38.90540345 15.6441719 -36.2013972 10.20411036 -31.51171875 5.1328125 C-22.28094544 -3.40449704 -11.72510591 -5.29520912 0 0 Z " fill="#010100" transform="translate(362.671875,318.53125)"/>
<path d="M0 0 C3.50625 -0.061875 7.0125 -0.12375 10.625 -0.1875 C11.71893066 -0.21481201 12.81286133 -0.24212402 13.93994141 -0.27026367 C19.37826698 -0.31665555 23.34042205 -0.14633881 28 3 C32.52850937 7.90588515 34.54313459 11.97532017 34.37890625 18.62109375 C33.51910489 24.01922809 30.50967386 27.62822904 26.5625 31.21484375 C21.40785322 33.79781917 16.79481336 33.4301459 11.125 33.25 C7.45375 33.1675 3.7825 33.085 0 33 C0 22.11 0 11.22 0 0 Z " fill="#533120" transform="translate(461,248)"/>
<path d="M0 0 C12.54 0 25.08 0 38 0 C38 28.38 38 56.76 38 86 C34.37 86 30.74 86 27 86 C25.58072468 81.7717044 24.16507617 77.54220259 22.75 73.3125 C22.35425781 72.13365234 21.95851563 70.95480469 21.55078125 69.74023438 C19.55597019 63.77215211 17.59303222 57.7951741 15.703125 51.79296875 C15.37473633 50.75035889 15.04634766 49.70774902 14.70800781 48.63354492 C14 46 14 46 14 43 C21.59 43 29.18 43 37 43 C37 29.14 37 15.28 37 1 C25.12 1 13.24 1 1 1 C0.67 1.66 0.34 2.32 0 3 C0 2.01 0 1.02 0 0 Z " fill="#F19A2D" transform="translate(406,102)"/>
<path d="M0 0 C11.55 0 23.1 0 35 0 C35 5.94 35 11.88 35 18 C30.17612933 18.0229102 25.35244611 18.04283686 20.52856445 18.05493164 C18.88630536 18.05997174 17.24405077 18.06680378 15.60180664 18.07543945 C13.24624521 18.08751926 10.89074291 18.09323139 8.53515625 18.09765625 C7.79660904 18.10281754 7.05806183 18.10797882 6.2971344 18.11329651 C4.53101912 18.1134925 2.76502854 18.06194719 1 18 C0.67 17.67 0.34 17.34 0 17 C0 11.39 0 5.78 0 0 Z " fill="#070402" transform="translate(320,452)"/>
<path d="M0 0 C11.55 0 23.1 0 35 0 C35 5.61 35 11.22 35 17 C34 18 34 18 30.76538086 18.11352539 C29.33185874 18.11336631 27.89833088 18.10767407 26.46484375 18.09765625 C25.33496788 18.09553383 25.33496788 18.09553383 24.18226624 18.09336853 C21.7673044 18.08775376 19.35243399 18.07519883 16.9375 18.0625 C15.30403779 18.0574869 13.67057414 18.05292366 12.03710938 18.04882812 C8.0246757 18.03862875 4.01244064 18.01905645 0 18 C0 12.06 0 6.12 0 0 Z " fill="#070402" transform="translate(252,452)"/>
<path d="M0 0 C11.55 0 23.1 0 35 0 C35 5.94 35 11.88 35 18 C30.17612933 18.0229102 25.35244611 18.04283686 20.52856445 18.05493164 C18.88630536 18.05997174 17.24405077 18.06680378 15.60180664 18.07543945 C13.24624521 18.08751926 10.89074291 18.09323139 8.53515625 18.09765625 C7.79660904 18.10281754 7.05806183 18.10797882 6.2971344 18.11329651 C4.53101912 18.1134925 2.76502854 18.06194719 1 18 C0.67 17.67 0.34 17.34 0 17 C0 11.39 0 5.78 0 0 Z " fill="#070403" transform="translate(320,230)"/>
<path d="M0 0 C11.55 0 23.1 0 35 0 C35 5.61 35 11.22 35 17 C34 18 34 18 30.76538086 18.11352539 C29.33185874 18.11336631 27.89833088 18.10767407 26.46484375 18.09765625 C25.33496788 18.09553383 25.33496788 18.09553383 24.18226624 18.09336853 C21.7673044 18.08775376 19.35243399 18.07519883 16.9375 18.0625 C15.30403779 18.0574869 13.67057414 18.05292366 12.03710938 18.04882812 C8.0246757 18.03862875 4.01244064 18.01905645 0 18 C0 12.06 0 6.12 0 0 Z " fill="#070402" transform="translate(252,230)"/>
<path d="M0 0 C16.335 0.495 16.335 0.495 33 1 C33 6.94 33 12.88 33 19 C28.49983717 19.05414634 24.00033177 19.0937477 19.5 19.125 C18.2315625 19.14175781 16.963125 19.15851563 15.65625 19.17578125 C9.07273681 19.21007038 3.28628128 19.01605485 -3 17 C-2.68985608 14.91631462 -2.3767948 12.83306332 -2.0625 10.75 C-1.88847656 9.58984375 -1.71445312 8.4296875 -1.53515625 7.234375 C-1 4 -1 4 0 0 Z " fill="#060302" transform="translate(49,229)"/>
<path d="M0 0 C11.22 0 22.44 0 34 0 C34 5.94 34 11.88 34 18 C22.78 18 11.56 18 0 18 C0 12.06 0 6.12 0 0 Z " fill="#050302" transform="translate(184,230)"/>
<path d="M0 0 C11.22 0 22.44 0 34 0 C34 5.94 34 11.88 34 18 C22.78 18 11.56 18 0 18 C0 12.06 0 6.12 0 0 Z " fill="#050302" transform="translate(116,230)"/>
<path d="M0 0 C16.335 0.495 16.335 0.495 33 1 C33 6.61 33 12.22 33 18 C28.19443933 18.02293216 23.38906785 18.04285248 18.58349609 18.05493164 C16.94807289 18.05996621 15.3126542 18.06679427 13.67724609 18.07543945 C11.32909025 18.08754335 8.98099381 18.093237 6.6328125 18.09765625 C5.53273361 18.10539818 5.53273361 18.10539818 4.41043091 18.11329651 C-0.77225659 18.11387171 -0.77225659 18.11387171 -3 17 C-2.68985608 14.91631462 -2.3767948 12.83306332 -2.0625 10.75 C-1.88847656 9.58984375 -1.71445312 8.4296875 -1.53515625 7.234375 C-1 4 -1 4 0 0 Z " fill="#030201" transform="translate(49,451)"/>
<path d="M0 0 C11.22 0 22.44 0 34 0 C34 5.61 34 11.22 34 17 C22.78 17 11.56 17 0 17 C0 11.39 0 5.78 0 0 Z " fill="#010100" transform="translate(184,452)"/>
<path d="M0 0 C11.22 0 22.44 0 34 0 C34 5.61 34 11.22 34 17 C22.78 17 11.56 17 0 17 C0 11.39 0 5.78 0 0 Z " fill="#010000" transform="translate(116,452)"/>
<path d="M0 0 C9.57 0 19.14 0 29 0 C29 5.94 29 11.88 29 18 C19.43 18 9.86 18 0 18 C0 12.06 0 6.12 0 0 Z " fill="#050302" transform="translate(389,230)"/>
<path d="M0 0 C9.57 0 19.14 0 29 0 C29 5.61 29 11.22 29 17 C19.43 17 9.86 17 0 17 C0 11.39 0 5.78 0 0 Z " fill="#010000" transform="translate(389,452)"/>
<path d="M0 0 C4.12071155 0.73584135 5.82805171 1.38627481 8.5 4.625 C9.2975483 9.64955429 9.32360163 11.46226829 6.375 15.625 C3.5 17.625 3.5 17.625 0.5 18.1875 C-3.30470451 17.4741179 -4.91196019 16.50881579 -7.5 13.625 C-8.625 10.25 -8.625 10.25 -8.5 6.625 C-6.0768816 2.46026525 -4.80003453 0.85714902 0 0 Z " fill="#583422" transform="translate(349.5,332.375)"/>
</svg>
